<?xml version="1.0" encoding="UTF-8" standalone="no"?>
<!DOCTYPE svg PUBLIC "-//W3C//DTD SVG 20010904//EN" "http://www.w3.org/TR/2001/REC-SVG-20010904/DTD/svg10.dtd">
<svg version="1.0" xmlns="http://www.w3.org/2000/svg" width="800.000000pt" height="800.000000pt" viewBox="0 0 800.000000 800.000000" preserveAspectRatio="xMidYMid meet">
<metadata>
Created by potrace 1.11, written by Peter Selinger 2001-2013
</metadata>
<g transform="translate(0.000000,800.000000) scale(0.100000,-0.100000)" fill="#000000" stroke="none">
<path d="M3500 7980 c-1075 -142 -2033 -698 -2683 -1558 -426 -562 -685 -1205 -784 -1947 -13 -101 -17 -204 -17 -465 0 -421 22 -611 115 -983 356 -1419 1477 -2540 2896 -2896 372 -93 562 -115 983 -115 421 0 611 22 983 115 1591 400 2777 1740 2987 3377 29 221 29 783 0 1004 -89 698 -357 1356 -777 1910 -653 863 -1615 1420 -2691 1558 -212 28 -806 27 -1012 0z"/>
</g>
</svg>